<svg width="118" height="75" viewBox="0 0 118 75" fill="none" xmlns="http://www.w3.org/2000/svg">
<path d="M32.1416 60.1208V46.1208H34.8816V51.8208H36.0816L40.0216 46.1208H43.3416L38.4816 52.9808L43.5216 60.1208H40.1816L36.1216 54.3008H34.8816V60.1208H32.1416Z" fill="#003E6A"/>
<path d="M50.9457 46.1208H54.0457L59.4257 60.1208H56.6057L55.6657 57.6008H49.3057L48.3657 60.1208H45.5057L50.9457 46.1208ZM50.0657 55.3808H54.9057L52.5057 48.9208L50.0657 55.3808Z" fill="#003E6A"/>
<path d="M63.2546 46.1208L68.0146 52.6008L72.7746 46.1208H75.2146V60.1208H72.4746V50.6008L68.6946 55.8008H67.3346L63.5546 50.6008V60.1208H60.8146V46.1208H63.2546Z" fill="#003E6A"/>
<path d="M80.1932 47.9008C81.5665 46.5408 83.3132 45.8608 85.4332 45.8608C87.5532 45.8608 89.2998 46.5475 90.6732 47.9208C92.0598 49.2808 92.7532 51.0142 92.7532 53.1208C92.7532 55.2275 92.0598 56.9675 90.6732 58.3408C89.2998 59.7008 87.5532 60.3808 85.4332 60.3808C83.2998 60.3808 81.5465 59.7008 80.1732 58.3408C78.7998 56.9675 78.1132 55.2275 78.1132 53.1208C78.1132 51.0142 78.8065 49.2742 80.1932 47.9008ZM82.1732 56.4808C83.0132 57.3608 84.0998 57.8008 85.4332 57.8008C86.7532 57.8008 87.8332 57.3608 88.6732 56.4808C89.5265 55.6008 89.9532 54.4808 89.9532 53.1208C89.9532 51.7608 89.5265 50.6408 88.6732 49.7608C87.8332 48.8808 86.7532 48.4408 85.4332 48.4408C84.0998 48.4408 83.0065 48.8808 82.1532 49.7608C81.3132 50.6408 80.8932 51.7608 80.8932 53.1208C80.8932 54.4808 81.3198 55.6008 82.1732 56.4808Z" fill="#003E6A"/>
<path d="M94.6399 60.1209V46.1208H100.64C101.893 46.1208 102.907 46.4675 103.68 47.1609C104.453 47.8542 104.84 48.7675 104.84 49.9008C104.84 51.1542 104.333 52.1475 103.32 52.8808C103.933 53.2142 104.413 53.6809 104.76 54.2809C105.107 54.8675 105.28 55.5209 105.28 56.2409C105.28 57.3875 104.873 58.3209 104.06 59.0409C103.26 59.7609 102.22 60.1209 100.94 60.1209H94.6399ZM97.2999 54.1009V57.8609H100.46C101.127 57.8609 101.647 57.6942 102.02 57.3609C102.407 57.0275 102.6 56.5675 102.6 55.9809C102.6 55.3942 102.407 54.9342 102.02 54.6009C101.647 54.2675 101.127 54.1009 100.46 54.1009H97.2999ZM97.2999 48.3809V51.9409H100.24C100.84 51.9409 101.32 51.7742 101.68 51.4409C102.027 51.1208 102.2 50.6942 102.2 50.1608C102.2 49.6275 102.02 49.2008 101.66 48.8808C101.313 48.5475 100.84 48.3809 100.24 48.3809H97.2999Z" fill="#003E6A"/>
<path d="M27.729 19.1923V16.5043H39.447V19.1923H35.037V31.2043H32.139V19.1923H27.729Z" fill="#003E6A"/>
<path d="M42.6314 18.3733C44.0734 16.9453 45.9074 16.2313 48.1334 16.2313C50.3594 16.2313 52.1934 16.9523 53.6354 18.3943C55.0914 19.8223 55.8194 21.6423 55.8194 23.8543C55.8194 26.0663 55.0914 27.8933 53.6354 29.3353C52.1934 30.7633 50.3594 31.4773 48.1334 31.4773C45.8934 31.4773 44.0524 30.7633 42.6104 29.3353C41.1684 27.8933 40.4474 26.0663 40.4474 23.8543C40.4474 21.6423 41.1754 19.8153 42.6314 18.3733ZM44.7104 27.3823C45.5924 28.3063 46.7334 28.7683 48.1334 28.7683C49.5194 28.7683 50.6534 28.3063 51.5354 27.3823C52.4314 26.4583 52.8794 25.2823 52.8794 23.8543C52.8794 22.4263 52.4314 21.2503 51.5354 20.3263C50.6534 19.4023 49.5194 18.9403 48.1334 18.9403C46.7334 18.9403 45.5854 19.4023 44.6894 20.3263C43.8074 21.2503 43.3664 22.4263 43.3664 23.8543C43.3664 25.2823 43.8144 26.4583 44.7104 27.3823Z" fill="#003E6A"/>
<path d="M61.5805 16.5043L66.5785 23.3083L71.5765 16.5043H74.1385V31.2043H71.2615V21.2083L67.2925 26.6683H65.8645L61.8955 21.2083V31.2043H59.0185V16.5043H61.5805Z" fill="#003E6A"/>
<path d="M79.387 18.3943C80.745 16.9523 82.516 16.2313 84.7 16.2313C87.136 16.2313 89.194 17.2463 90.874 19.2763L88.984 21.1033C88.466 20.4173 87.843 19.8853 87.115 19.5073C86.387 19.1293 85.617 18.9403 84.805 18.9403C83.461 18.9403 82.369 19.4023 81.529 20.3263C80.689 21.2363 80.269 22.4123 80.269 23.8543C80.269 25.3103 80.689 26.4933 81.529 27.4033C82.369 28.3133 83.482 28.7683 84.868 28.7683C86.688 28.7683 88.179 28.0123 89.341 26.5003L91.231 28.2853C89.607 30.4133 87.451 31.4773 84.763 31.4773C82.565 31.4773 80.78 30.7633 79.408 29.3353C78.036 27.8933 77.35 26.0663 77.35 23.8543C77.35 21.6563 78.029 19.8363 79.387 18.3943Z" fill="#003E6A"/>
<path d="M93.9523 31.2043V16.5043H96.8293V22.4893H98.0893L102.226 16.5043H105.712L100.609 23.7073L105.901 31.2043H102.394L98.1313 25.0933H96.8293V31.2043H93.9523Z" fill="#003E6A"/>
<path d="M65.6073 36.2259H66.5173L68.4143 41.1259H67.6303L67.2593 40.1669H64.8513L64.4803 41.1259H63.6893L65.6073 36.2259ZM65.1033 39.4809H67.0073L66.0623 37.0169L65.1033 39.4809Z" fill="#003E6A"/>
<path d="M69.537 39.7259C69.9477 40.2252 70.4727 40.4749 71.112 40.4749C71.56 40.4749 71.9357 40.3419 72.239 40.0759C72.5423 39.8099 72.7267 39.4529 72.792 39.0049H70.132V38.2909H72.778C72.7033 37.8662 72.5167 37.5256 72.218 37.2689C71.9193 37.0076 71.56 36.8769 71.14 36.8769C70.538 36.8769 70.0457 37.1149 69.663 37.5909L69.131 37.0869C69.6723 36.4569 70.349 36.1419 71.161 36.1419C71.8657 36.1419 72.442 36.3799 72.89 36.8559C73.3427 37.3319 73.569 37.9386 73.569 38.6759C73.569 39.4179 73.3403 40.0269 72.883 40.5029C72.4257 40.9742 71.8353 41.2099 71.112 41.2099C70.286 41.2099 69.5837 40.8809 69.005 40.2229L69.537 39.7259Z" fill="#003E6A"/>
<path d="M74.9378 36.2259H76.7158C77.2291 36.2259 77.6421 36.3776 77.9548 36.6809C78.2721 36.9842 78.4308 37.3856 78.4308 37.8849C78.4308 38.3842 78.2721 38.7879 77.9548 39.0959C77.6421 39.3992 77.2291 39.5509 76.7158 39.5509H75.7008V41.1259H74.9378V36.2259ZM76.6598 38.8369C76.9725 38.8369 77.2175 38.7506 77.3948 38.5779C77.5768 38.4052 77.6678 38.1742 77.6678 37.8849C77.6678 37.5956 77.5768 37.3669 77.3948 37.1989C77.2175 37.0262 76.9725 36.9399 76.6598 36.9399H75.6938V38.8369H76.6598Z" fill="#003E6A"/>
<path d="M79.3506 38.6759C79.3506 37.9386 79.5862 37.3319 80.0576 36.8559C80.5336 36.3799 81.1379 36.1419 81.8706 36.1419C82.6032 36.1419 83.2076 36.3822 83.6836 36.8629C84.1596 37.3389 84.3976 37.9432 84.3976 38.6759C84.3976 39.4086 84.1596 40.0129 83.6836 40.4889C83.2076 40.9696 82.6032 41.2099 81.8706 41.2099C81.1379 41.2099 80.5336 40.9719 80.0576 40.4959C79.5862 40.0199 79.3506 39.4132 79.3506 38.6759ZM80.1206 38.6759C80.1206 39.1986 80.2862 39.6279 80.6176 39.9639C80.9442 40.3046 81.3619 40.4749 81.8706 40.4749C82.3792 40.4749 82.7969 40.3069 83.1236 39.9709C83.4549 39.6302 83.6206 39.1986 83.6206 38.6759C83.6206 38.1532 83.4549 37.7239 83.1236 37.3879C82.7969 37.0472 82.3792 36.8769 81.8706 36.8769C81.3619 36.8769 80.9419 37.0472 80.6106 37.3879C80.2839 37.7239 80.1206 38.1532 80.1206 38.6759Z" fill="#003E6A"/>
<path d="M89.7341 36.2259V41.1259H88.9711V36.9539H86.5281V41.1259H85.7651V36.2259H89.7341Z" fill="#003E6A"/>
<path d="M91.1076 38.6759C91.1076 37.9386 91.3432 37.3319 91.8146 36.8559C92.2906 36.3799 92.8949 36.1419 93.6276 36.1419C94.3602 36.1419 94.9646 36.3822 95.4406 36.8629C95.9166 37.3389 96.1546 37.9432 96.1546 38.6759C96.1546 39.4086 95.9166 40.0129 95.4406 40.4889C94.9646 40.9696 94.3602 41.2099 93.6276 41.2099C92.8949 41.2099 92.2906 40.9719 91.8146 40.4959C91.3432 40.0199 91.1076 39.4132 91.1076 38.6759ZM91.8776 38.6759C91.8776 39.1986 92.0432 39.6279 92.3746 39.9639C92.7012 40.3046 93.1189 40.4749 93.6276 40.4749C94.1362 40.4749 94.5539 40.3069 94.8806 39.9709C95.2119 39.6302 95.3776 39.1986 95.3776 38.6759C95.3776 38.1532 95.2119 37.7239 94.8806 37.3879C94.5539 37.0472 94.1362 36.8769 93.6276 36.8769C93.1189 36.8769 92.6989 37.0472 92.3676 37.3879C92.0409 37.7239 91.8776 38.1532 91.8776 38.6759Z" fill="#003E6A"/>
<path d="M97.5221 36.2259H99.3001C99.8134 36.2259 100.226 36.3776 100.539 36.6809C100.856 36.9842 101.015 37.3856 101.015 37.8849C101.015 38.3842 100.856 38.7879 100.539 39.0959C100.226 39.3992 99.8134 39.5509 99.3001 39.5509H98.2851V41.1259H97.5221V36.2259ZM99.2441 38.8369C99.5568 38.8369 99.8018 38.7506 99.9791 38.5779C100.161 38.4052 100.252 38.1742 100.252 37.8849C100.252 37.5956 100.161 37.3669 99.9791 37.1989C99.8018 37.0262 99.5568 36.9399 99.2441 36.9399H98.2781V38.8369H99.2441Z" fill="#003E6A"/>
<path d="M101.617 36.9539V36.2259H105.418V36.9539H103.899V41.1259H103.136V36.9539H101.617Z" fill="#003E6A"/>
<path d="M29.2721 37.5C29.2721 38.4303 28.5179 39.1845 27.5876 39.1845C26.6573 39.1845 25.9031 38.4303 25.9031 37.5C25.9031 36.5697 26.6573 35.8155 27.5876 35.8155C28.5179 35.8155 29.2721 36.5697 29.2721 37.5Z" fill="#003E6A"/>
<path d="M28.551 36.4359H30.9379C31.1794 36.4359 31.3751 36.6316 31.3751 36.8731C-nan -nan -nan -nan 31.3751 36.8731L-nan -nanC-nan -nan -nan -nan -nan -nanL31.3751 36.8731V38.265L-nan -nanC-nan -nan -nan -nan -nan -nanL31.3751 38.265C-nan -nan -nan -nan 31.3751 38.265C31.3751 38.5002 31.1844 38.6909 30.9492 38.6909H28.551V36.4359Z" fill="#003E6A"/>
<path d="M26.2444 37.3624L25.051 35.2953C24.9302 35.0862 25.0019 34.8188 25.211 34.698C-nan -nan -nan -nan 25.211 34.698L-nan -nanC-nan -nan -nan -nan -nan -nanL25.211 34.698L26.4164 34.0021L-nan -nanC-nan -nan -nan -nan -nan -nanL26.4164 34.0021C-nan -nan -nan -nan 26.4164 34.0021C26.6201 33.8845 26.8806 33.9543 26.9983 34.158L28.1973 36.2348L26.2444 37.3624Z" fill="#003E6A"/>
<path d="M26.2444 37.6523L25.051 39.7193C24.9302 39.9285 25.0019 40.1959 25.211 40.3166C-nan -nan -nan -nan 25.211 40.3166L-nan -nanC-nan -nan -nan -nan -nan -nanL25.211 40.3166L26.4164 41.0126L-nan -nanC-nan -nan -nan -nan -nan -nanL26.4164 41.0126C-nan -nan -nan -nan 26.4164 41.0126C26.6201 41.1302 26.8806 41.0604 26.9983 40.8567L28.1973 38.7798L26.2444 37.6523Z" fill="#003E6A"/>
<path d="M32.1607 36.4359H60.7644V40.9885H35.5732L34.7813 38.5983H32.1607L32.1607 36.4359Z" fill="#C2D72F"/>
<path d="M24.6083 34.0856L10.3065 9.31406L14.2492 7.03772L26.8448 28.8539L25.1708 30.7348L26.4811 33.0043L24.6083 34.0856Z" fill="#FDD400"/>
<path d="M26.337 42.0504L12.0352 66.8219L8.09244 64.5456L20.688 42.7294L23.154 43.2387L24.4643 40.9692L26.337 42.0504Z" fill="#F48020"/>
</svg>
