<?xml version="1.0" encoding="UTF-8"?>
<svg width="30px" height="30px" viewBox="0 0 30 30" version="1.1" xmlns="http://www.w3.org/2000/svg" xmlns:xlink="http://www.w3.org/1999/xlink">
    <!-- Generator: Sketch 47.1 (45422) - http://www.bohemiancoding.com/sketch -->
    <title>S7</title>
    <desc>Created with Sketch.</desc>
    <defs></defs>
    <g id="AirlinesLogo" stroke="none" stroke-width="1" fill="none" fill-rule="evenodd">
        <g id="logo_Airlines" transform="translate(-83.000000, -521.000000)" fill-rule="nonzero">
            <g id="S7" transform="translate(83.000000, 521.000000)">
                <rect id="Rectangle-path" fill="#B8CF53" x="0" y="0" width="29.98" height="30" rx="14.99"></rect>
                <path d="M14.2447317,7.00116593 C12.0103897,7.00116593 10.5631713,7.12708591 9.51291713,7.52699847 C7.75152977,8.23238359 6.53455061,9.71310938 6.53455061,11.6567077 C6.53455061,13.2750128 7.26836749,14.4467682 9.3892911,15.7969103 C11.654256,17.2053487 12.1067954,17.671719 12.1067954,18.5251767 C12.1067954,19.4532537 11.2187295,20.5130802 8.93675178,20.5130802 C8.14055479,20.5130802 6.94058839,20.3976536 6.17388018,20.2052758 L5.80867301,20.1108358 C5.60451994,20.6728121 5.14177297,22.0031334 5,22.4858267 L5.36180462,22.5965897 C6.05138833,22.8239452 7.68801548,23 8.86076147,23 C12.7612194,23 15.0885644,20.5772062 15.0885644,18.0413175 C15.0885644,16.4813088 14.4012491,15.2967281 12.0727698,13.8031771 C10.9068289,13.066312 10.3113825,12.5871165 9.95071205,12.217518 C9.65582428,11.8304307 9.62520132,11.542447 9.62520132,11.2381403 C9.62520132,10.9478248 9.68644724,10.6132041 9.87358756,10.3683597 C10.0743381,10.0663849 10.4429478,9.87284122 10.9431228,9.71310938 C11.4580423,9.53822051 12.4084882,9.5335568 13.8920006,9.5335568 L15.2723022,9.5335568 L16.259042,7 L14.2447317,7 L14.2447317,7.00116593 Z M24.6769538,7.00116593 L17.740286,7.00116593 L16.7546803,9.53472273 L19.0536708,9.53472273 C20.5995632,9.53472273 20.8989878,9.49974495 21.2868786,9.49974495 C20.7265918,10.8184071 17.3444559,19.6724477 17.3444559,19.6724477 L20.2060015,19.6724477 C20.2060015,19.6724477 24.4852768,8.65095096 24.9389503,7.49551847 C25.0648447,7.23668294 25.0047329,7.00116593 24.6769538,7.00116593 Z" id="Shape" fill="#FFFFFF"></path>
            </g>
        </g>
    </g>
</svg>